<svg version="1" xmlns="http://www.w3.org/2000/svg" width="333.333" height="333.333" viewBox="0 0 250.000000 250.000000"><path d="M115.5 79.7c-10.9.9-31.4 3.7-43.5 5.9-17.1 3.1-46.6 10.1-48.8 11.5-1.3.8-.9.9 1.8.4 43.6-7.5 64.4-9.6 99.8-10.2l30.3-.5 1.4-2.9c.8-1.5 1.5-3.3 1.5-3.9 0-.9-32.1-1.2-42.5-.3z"/><path d="M135.2 88.7c3.2 6.7 2.5 6.3 11.2 6.3 11.1 0 34.2 1.6 58.1 3.9 26.9 2.7 31 3 29.4 2.1-1.8-1-24.1-5.4-39.9-8-23.2-3.6-59.8-6.3-58.8-4.3zM14 103.3c-1.6.8-2.6 2.3-2.8 4-.3 2.3.3 3 4.2 4.9 5.5 2.7 5.4 4.4-.3 4.1-3.5-.1-4.1.1-4.1 1.8s.7 1.9 5.8 1.9c7.1 0 9.5-1.5 9-5.5-.2-2.3-1.3-3.5-4.8-5.5l-4.5-2.5 4.3-.3c2.7-.2 4.2-.8 4.2-1.7 0-2.6-6.7-3.4-11-1.2zM168.3 102.7c-2 .7-1.5 4 .5 4.6 1.1.2 3.7.1 5.8-.2 3-.5 3.9-1.1 3.9-2.6 0-2.8-3-3-4.3-.3-.8 1.7-1.1 1.8-1.1.7-.1-1.3-2.5-3.3-3.4-2.8-.1 0-.8.3-1.4.6zm2.7 1.2c0 1.2-2 2.5-2.7 1.8-.7-.7.6-2.7 1.8-2.7.5 0 .9.4.9.9zm6.5 0c.3.5.1 1.2-.5 1.6-.5.3-1-.1-1-.9 0-1.8.6-2.1 1.5-.7zM26.2 104.2c.3.7 2.1 1.4 4.1 1.6l3.7.3v14l2.8-.3c2.6-.3 2.7-.5 3-7.1l.3-6.7h3.4c2.4 0 3.5-.5 3.5-1.5 0-1.2-1.8-1.5-10.6-1.5-8 0-10.5.3-10.2 1.2zM47.4 110.6c-1.9 4.1-3.4 7.9-3.4 8.5 0 1.7 2.9.9 4-1.1.8-1.5 2.1-2 5-2s4.2.5 5 2c1.1 2 6 2.9 6 1.1 0-.5-1.6-4.3-3.5-8.5-3.2-7.1-3.7-7.6-6.5-7.6-2.9 0-3.4.5-6.6 7.6zm7-1c.9 2.3.8 2.4-1.3 2.4-1.4 0-1.8-.5-1.4-2 .6-2.4 1.9-2.6 2.7-.4zM60 104.4c0 1 1.3 1.6 3.8 1.8l3.7.3v13h5.9l-.3-6.8-.2-6.7H81v14.1l7.3-.3c5.6-.2 7.2-.6 7.2-1.8 0-1.1-1.1-1.5-4.2-1.4-3.9.1-4.3-.1-4.3-2.3 0-2.2.4-2.4 3.3-2.1 2.3.2 3.2-.1 3.2-1.2 0-1-1.2-1.6-3.2-1.8-5-.5-4.4-3.2.7-3.2 2.9 0 4-.4 4-1.5 0-1.3-2.6-1.5-17.5-1.5-14.6 0-17.5.2-17.5 1.4zM96.3 104.4c.3.7 1.5 4.6 2.7 8.5 2 6.8 2.3 7.2 4.8 6.9 2.2-.2 2.9-1 3.6-4.1.5-2 1.2-3.7 1.6-3.7.4 0 1.1 1.7 1.6 3.7.7 3.1 1.4 3.9 3.6 4.1 2.5.3 2.8-.1 4.8-6.9 1.2-3.9 2.4-7.8 2.7-8.5.3-.9-.2-1.4-1.5-1.4-1.5 0-2.4 1-3.3 3.7-1.9 5.9-2.2 6.1-3.4 1.3-.9-3.7-1.5-4.6-3.7-4.8-2.3-.3-2.7.2-3.8 4.5l-1.3 4.8-1.5-4.8c-1.4-4.2-1.9-4.7-4.5-4.7-2.1 0-2.8.4-2.4 1.4zM123 111.6v8.5l2.8-.3c2.7-.3 2.7-.4 3-8.6l.3-8.2H123v8.6zM130 111.6v8.6l7.6-.4c6.9-.3 7.9-.6 10-3.1 2.9-3.5 3.1-7.6.3-11.1-1.9-2.4-2.6-2.6-10-2.6H130v8.6zm12.4-4c3.1 3.1 1.1 8.1-3.4 8.6-2.4.3-2.5 0-2.8-5-.3-5-.2-5.2 2.2-5.2 1.3 0 3.2.7 4 1.6zM151 111.5v8.5h7.6c6.7 0 7.5-.2 7.2-1.8-.3-1.4-1.2-1.6-4.7-1.4-4 .4-4.2.2-3.9-2 .2-1.8 1-2.4 3.6-2.6 4.2-.4 3.7-2.6-.6-3-4.9-.5-4.2-3.2.8-3.2 2.9 0 4-.4 4-1.5 0-1.2-1.4-1.5-7-1.5h-7v8.5z"/><path d="M174.9 115.9c-1.6 1.6-2.9 3.6-2.9 4.5 0 .8-.9 1.8-2 2.1-1.1.3-2 1.1-2 1.7 0 .6-.9.3-2-.7-1.4-1.3-2.9-1.6-5.6-1.2-4.2.7-6 2-8.6 6.2l-1.8 3v-2.8c0-3.1-3.1-6.7-5.9-6.7-5.8 0-10.4 4.1-12 10.6-1.7 6.7.6 10.4 6.4 10.4 4 0 7-2.2 9.5-6.8l1.9-3.7.1 3.7c0 4.5 2.2 6.8 6.4 6.8 6.1 0 11.6-6.7 11.6-14 0-1.9.5-3 1.4-3 1.1 0 .9 2.2-1 11.2-2.8 13.8-2.8 12.8-.5 12.8 1.6 0 2.2-1.7 4.2-12 2.3-11.9 2.3-12 5.1-12 1.8 0 2.8-.5 2.8-1.5 0-.8-.8-1.5-1.8-1.5-2.7 0-3.3-1-2-3.4 1.5-2.9 2.9-3.7 5.6-3.1 1.7.4 2.2.1 2.2-1.5 0-3.2-5.5-2.7-9.1.9zM145 126.5c2.9 3.5-1.7 13.5-6.1 13.5-1.9 0-3.9-2.7-3.4-4.5.2-.6.6-2.2.9-3.8.7-3.1 3.9-6.7 6-6.7.7 0 1.9.7 2.6 1.5zm17.8-.3c1.8 1.8 1.4 6.9-.8 10.6-1.6 2.7-2.6 3.3-4.8 3-2.1-.2-2.8-.9-3-3.2-.5-4 .5-7.3 2.8-9.6s4.1-2.5 5.8-.8z"/><path d="M182 120.1c0 2.5 3.3 2.2 3.8-.4.2-1.2-.3-1.7-1.7-1.7-1.5 0-2.1.6-2.1 2.1zM121.4 123.2c-.4.6-1.4 5.1-2.4 10-1.5 7.8-1.5 9-.3 9.5 1.8.7 3.3-1.3 3.3-4.3s6.6-11.3 9.5-12c1.6-.4 2.5-1.3 2.5-2.5 0-2.9-2.8-2.3-6.7 1.6l-3.4 3.4.6-2.8c.4-2 .2-3-.9-3.4-.9-.4-1.8-.1-2.2.5zM194.4 125.2l-3.7 3.3.6-2.8c.6-2.3.4-2.7-1.3-2.7-1.2 0-2.2.8-2.5 2.2-.8 3.5-3.5 16.9-3.5 17.4 0 .2.9.4 1.9.4 1.5 0 2.1-1 2.6-3.8.7-4.1 8.6-14.3 10-13 .5.4.2 4.2-.5 8.3-1.3 7.7-1.1 9.1 1.3 8.2 1.5-.6 4.1-13.6 3.6-17.7-.6-3.8-4-3.7-8.5.2zM210.3 123.9c-4 2.5-5.9 5.4-7.2 11-1.9 8.5 3.2 11 9.6 4.6l3.4-3.4-.6 3.2c-1.1 5.3-3.2 7.7-6.6 7.7-1.7 0-3.9-.4-4.9-1-1.4-.7-2-.6-2.4.7-.9 2.2 1.1 3.3 6.2 3.3 5.5 0 8-1.4 9.7-5.3 1.4-3.4 4.9-20.7 4.3-21.3-.2-.2-2.2-.6-4.3-.9-3-.4-4.8-.1-7.2 1.4zm7.3 2.6c1.2 3-7.2 13.3-10 12.2-1.2-.5-1.2-1.3-.4-4.7 1.6-6.2 8.9-11.5 10.4-7.5zM181.6 124.7c-.7 2.4-3.6 16.2-3.6 17.4 0 .5.8.9 1.8.9 1.5 0 2.2-1.7 3.9-10 1.9-9.5 1.9-10 .2-10-1 0-2 .8-2.3 1.7zM140.2 159.2c-.5.7-1.3 3.5-1.6 6.3-.5 4.4-.5 4.6.5 2 .6-1.7 1.3-3.7 1.6-4.5.4-.8.5-1.8.5-2.3-.1-.4.5-.7 1.4-.7.8 0 1.2-.5.9-1-.8-1.4-2-1.3-3.3.2zM49.6 160.2c-1.3 4.1-1.5 6.8-.6 6.8.5 0 1-.7 1-1.5s.8-1.5 1.8-1.6c1 0 1.2-.3.5-.6-1.9-.7-1.6-3.1.5-3.6 1.2-.4 1.1-.5-.6-.6-1.2 0-2.4.5-2.6 1.1zM54.4 162.4c-.3 2.1-.4 3.9-.1 4.2.3.4.9-1 1.3-3 .3-2.1.4-3.9.1-4.2-.3-.4-.9 1-1.3 3zM74.2 160.2c-1.1 1.1-1.8 6.8-.8 6.8.2 0 1.3.3 2.3.6 1.7.5 1.7.4-.1-1-1.6-1.3-1.8-2-.8-4 .6-1.3 2.1-2.6 3.4-2.9 2.2-.4 2.2-.4-.2-.6-1.5 0-3.1.4-3.8 1.1zM80.6 162.4c-.4 1.9-1.2 3.7-1.9 3.9-.9.4-.8.6.1.6.8.1 2.3-.9 3.4-2.2l2-2.2-.5 2.2c-.3 1.3-.1 2.3.4 2.3s.9-.5.9-1.2c0-.6.6-.3 1.4.7 1.4 1.9 1.5 1.9 3.5.1 1.6-1.4 2.1-1.6 2.1-.5s.2 1.1 1-.1c.5-.8.9-2.4.9-3.5 0-2-.1-2-.8 0-.8 1.9-.8 1.9-1.9 0-.9-1.7-1.4-1.8-3.1-.8-1.4.9-2.2.9-2.7.2-.3-.6-1.3-.8-2.1-.5-1.1.4-1.3.2-.9-.9.3-.8.2-1.5-.3-1.5s-1.2 1.5-1.5 3.4zM90 164c0 1.1-.7 2-1.5 2-1.7 0-1.8-.2-.9-2.4.9-2.3 2.4-2 2.4.4zM121 160.7c0 1-.3 2.9-.6 4.3-.5 2.3-.5 2.4.9.7 1.3-1.5 1.7-1.6 2.4-.4 1.1 1.8 6 3 6.8 1.7.5-.8 1.1-.8 2 0 1.7 1.4 4.3.3 5.1-2.2.9-2.9-1.1-4.6-3.6-3-1.2.7-2.1.8-2.5.2-1.1-1.8-3.4-1-5 1.7l-1.5 2.8.6-3.8c.6-3.5.5-3.7-2-3.7-1.8 0-2.6.5-2.6 1.7zm4 .3c0 .5-.7 1-1.6 1-.8 0-1.2-.5-.9-1 .3-.6 1-1 1.6-1 .5 0 .9.4.9 1zm4.8 4.3c-.7 1.4-1.3 1.7-1.6.9-.6-1.9.6-4.4 1.8-3.7.7.4.6 1.4-.2 2.8zm6 0c-.7 1.4-1.3 1.7-1.6.9-.6-1.9.6-4.4 1.8-3.7.7.4.6 1.4-.2 2.8zM161.3 160.5c-.3.9.3 2.5 1.2 3.5 1.7 1.9 1.2 2.6-1.7 2.1-.5 0-.8.3-.8.9 0 1.2 2 1.3 4 0 .9-.5 1.9-.5 2.8.2.9.8 1.6.8 2.4 0 .6-.6 1.6-.8 2.3-.6.8.3 1.5-.8 1.9-3.1.9-4.4 0-6-.9-1.9-1.1 4.6-1.3 5.1-1.4 2.1-.1-2-.6-2.7-2.1-2.7-1 0-2.3.7-2.7 1.5-.8 1.3-1.1 1.3-2.8.1-2-1.4-1.9-1.5.5-2.5 2.5-1 2.5-1 .2-1-1.2-.1-2.5.6-2.9 1.4zm7.4 5.2c-1.6 1.6-1.7 1.6-1.7-.3 0-2.6 1.1-3.7 2.4-2.4.7.7.5 1.6-.7 2.7zM66.6 163c-.3 1.8-.3 3.7.1 4.3.4.7 1-.3 1.4-2.3.4-1.9.4-3.9 0-4.3-.5-.5-1.1.6-1.5 2.3zM181.6 160.7c-1 1.1-.7 6.1.5 6.9.8.4.9-.1.4-1.5-.4-1.2-.2-2.8.5-3.6 1.1-1.3-.1-3-1.4-1.8zM56.7 164c-.6 2.6.3 4.4 1 2.2.3-.7 1.1-1.9 1.9-2.6 1.8-1.9 1.8-2.2-.5-2.2-1.3 0-2.1.9-2.4 2.6zM62.5 164.1c.6 2.5.4 3-.6 2.4-1.1-.6-1.2-.5-.1.6.9 1 1.5 1 2.4.1 1-1 1-1.7-.1-3.4-1.1-1.8-1.1-2 .4-1.5.9.4 1.4.3 1-.3-.3-.6-1.3-1-2.1-1-1.2 0-1.4.7-.9 3.1zM95.5 163.3c-1.3 1.9-1.3 2.3 0 3.6 1.1 1.2 1.8 1.2 2.7.3.9-.9 1.5-.9 2.5 0 1 .8 1.7.8 2.6-.1.7-.7.8-1.2.2-1.1-2.4.5-2.6-.1-.4-2 1.3-1 2.2-2 1.9-2.1-.3 0-2.2-.3-4.2-.4-3-.3-4.1.1-5.3 1.8zm4.5.2c0 1.5-2.6 3.2-3.6 2.3-.2-.3-.2-1.3.2-2.2.8-2 3.4-2.1 3.4-.1zm3-.5c0 .5-.5 1-1.1 1-.5 0-.7-.5-.4-1 .3-.6.8-1 1.1-1 .2 0 .4.4.4 1zM108.7 162.3c-.4 1-.7 2.6-.7 3.5.1 1.5.2 1.5 1.1-.1.6-1 .9-2.5.7-3.5-.3-1.6-.4-1.5-1.1.1zM112.9 161.7c-.9.2-1.9 1.5-2.2 2.9-.5 3-.1 3 2.4.1l2-2.2-.6 2.2c-.4 1.4-.2 2.3.4 2.3.6 0 1.1-1.4 1.1-3 0-1.7-.3-2.9-.7-2.9-.5.1-1.5.3-2.4.6zM142.8 161.6c-.5.4-.8 1.9-.8 3.3.1 2.3.2 2.4 1.1.8 1.1-1.9.9-5.3-.3-4.1zM146.8 161.7c-1 .2-1.8.8-1.8 1.3s-.3 1.5-.6 2.4c-.3.9-.1 1.6.4 1.6.6 0 1.4-.9 1.7-2 .3-1.1 1.1-2 1.6-2 .6 0 .7.9.4 2-.4 1.1-.2 2 .4 2 .6 0 1.1-1.4 1.1-3 0-1.7-.3-2.9-.7-2.9-.5.1-1.6.3-2.5.6zM152.2 162.2c-1.7 1.7-1.5 4.8.4 4.8.8 0 1.2.5.9 1-.4.6-1 .8-1.5.5-.5-.3-1.1-.1-1.5.5-.3.5.3 1 1.4 1 2.2 0 3.7-2.1 4.2-6 .4-2.8-1.9-3.8-3.9-1.8zm1.8 2.3c-.7.9-1.5 1.3-1.8 1-.3-.2.1-1.1.8-2 .7-.9 1.5-1.3 1.8-1 .3.2-.1 1.1-.8 2zM174.7 163.3c-.4 1.5-.5 3.2-.2 3.7 1 1.6 4.3-.2 5-2.7.9-3.6-.2-4.1-1.6-.7l-1.2 2.9-.7-3-.6-3-.7 2.8zM184.7 163c-.9 3.5-.9 4.2.3 3.5.6-.4 1.8-.1 2.6.6 1.1.9 1.8.9 2.6.1.6-.6 1.6-.8 2.3-.5.7.2 1.6-.5 2-1.6.8-2.7 2.5-2.8 1.8-.1-.3 1.1 0 2 .6 2s1.1-1.3 1.1-3c0-2.5-.3-2.9-2.2-2.6-1.4.2-2.5 1.3-2.9 2.7-.7 2.3-.7 2.3-.8-.4-.1-3.5-4-3.9-4.9-.5-.6 2.3-.6 2.3-1.2-.2l-.6-2.5-.7 2.5zm5.5 2.2c-1.5 1.5-2.6.4-1.8-1.8.5-1.3.9-1.5 1.8-.6s.9 1.5 0 2.4zM200.2 163.5c.3 1.4.1 2.5-.4 2.5s-.6.4-.3 1c.9 1.5 2.5 1.2 3.2-.6.3-.9 0-2-.8-2.5-1.2-.8-1.2-1.1.1-1.9 1.3-.8 1.2-1-.4-1-1.4 0-1.7.6-1.4 2.5z"/></svg>